<svg xmlns="http://www.w3.org/2000/svg" version="1.1" width="600px" height="600px" viewBox="0 0 200 200" style="overflow:hidden!important;"><g id="svga-group-wrapper"><g id="svga-group-backs-single"><path id="SvgjsPath9061" d="M0 0h200v200H0V0z" fill="#ecf0f1" stroke-width="none" opacity="1"></path><path id="SvgjsPath9062" d="M165.5 23.7c11.7 0 21.1 9.5 21.1 21.1S177.2 66 165.5 66s-21.1-9.5-21.1-21.1 9.4-21.2 21.1-21.2zm-77.3 86.5c11.7 0 21.1 9.5 21.1 21.1s-9.5 21.1-21.1 21.1-21.1-9.5-21.1-21.1 9.4-21.1 21.1-21.1zm-37.8 48.9c9.1 0 16.6 7.4 16.6 16.6s-7.4 16.6-16.6 16.6-16.6-7.4-16.6-16.6 7.5-16.6 16.6-16.6zm-.3-132.8c9.1 0 16.6 7.4 16.6 16.6s-7.4 16.6-16.6 16.6S33.5 52 33.5 42.8s7.4-16.5 16.6-16.5zm60.3-7.2c2.7 0 4.8 2.2 4.8 4.8s-2.2 4.8-4.8 4.8-4.8-2.2-4.8-4.8 2.1-4.8 4.8-4.8zm-91.5 97.1c2.7 0 4.8 2.2 4.8 4.8s-2.2 4.8-4.8 4.8-4.8-2.2-4.8-4.8 2.1-4.8 4.8-4.8zm120-5.7c4.8 0 8.8 3.9 8.8 8.8s-3.9 8.8-8.8 8.8-8.8-3.9-8.8-8.8 4-8.8 8.8-8.8z" fill="#c6dce2" stroke-width="none" opacity="1"></path><path id="SvgjsPath9063" d="M101.8 45.4c14.2 0 25.8 11.5 25.8 25.8S116 97 101.8 97 76 85.4 76 71.2s11.5-25.8 25.8-25.8zm21.6 117.7c7.5 0 13.6 6.1 13.6 13.6s-6.1 13.6-13.6 13.6-13.6-6.1-13.6-13.6 6-13.6 13.6-13.6zm-88.6-35.9c7.2 0 13 5.8 13 12.9S42 153 34.8 153s-13-5.8-13-12.9 5.8-12.9 13-12.9zM55 88.8c2.1 0 3.8 1.7 3.8 3.8s-1.7 3.8-3.8 3.8-3.8-1.7-3.8-3.8 1.7-3.8 3.8-3.8zm44.9 78.4c2.1 0 3.8 1.7 3.8 3.8s-1.7 3.8-3.8 3.8-3.8-1.7-3.8-3.8 1.7-3.8 3.8-3.8zm79.9-82.1c2.1 0 3.8 1.7 3.8 3.8s-1.7 3.8-3.8 3.8-3.8-1.7-3.8-3.8 1.7-3.8 3.8-3.8zM66.7 16.5c2.1 0 3.8 1.7 3.8 3.8s-1.7 3.8-3.8 3.8-3.8-1.7-3.8-3.8 1.7-3.8 3.8-3.8zm-46.8-4.3c2.7 0 4.8 2.2 4.8 4.8s-2.2 4.8-4.8 4.8-4.8-2.2-4.8-4.8 2.1-4.8 4.8-4.8zM15.5 180c2.7 0 4.8 2.2 4.8 4.8s-2.2 4.8-4.8 4.8-4.8-2.2-4.8-4.8 2.2-4.8 4.8-4.8zM149.1 77.2c4.7 0 8.4 3.8 8.4 8.4s-3.8 8.4-8.4 8.4-8.4-3.8-8.4-8.4 3.7-8.4 8.4-8.4zM145.8 5c4.7 0 8.4 3.8 8.4 8.4s-3.8 8.4-8.4 8.4-8.4-3.8-8.4-8.4 3.7-8.4 8.4-8.4zM35.3 70.3c4.8 0 8.8 3.9 8.8 8.8s-3.9 8.8-8.8 8.8-8.8-3.9-8.8-8.8 4-8.8 8.8-8.8zm127.8 58.9c14 0 25.3 11.3 25.3 25.3s-11.3 25.3-25.3 25.3-25.3-11.3-25.3-25.3 11.4-25.3 25.3-25.3z" fill="#a4c9d2" stroke-width="none" opacity="1"></path></g><g id="svga-group-humanwrap-move" transform="matrix(1,0,0,1,0,0)"><g id="svga-group-humanwrap"><g id="svga-group-hair-back-move" transform="matrix(1,0,0,1,0,0)"><g id="svga-group-hair-back"><path id="SvgjsPath8583" d="M140.4 90.8s1.1 10.6-7.4 32.3-12.6 27.9-27.2 36-16 15.2-23.7 27.7c-6.9 11.2-21.5 17.6-21.5 17.6s1.8-6-6.7-23.1-6.7-25.9-.7-39.7 39.4-73.4 49.3-77.7 33-2.9 37.9 26.9z" fill="#000000" stroke-width="none" opacity="1"></path><path id="SvgjsPath8584" d="M132.6 105.5c-2.5 21.2-15.4 37.9-33.9 48.5-14.9 8.5-35 18.3-35.5 37.6.1 0 .2-.1.3-.1.3-.1.6-.2.8-.3-.2.1-.4.2-.6.2.2-.1.5-.1.7-.2.9-23.2 29.9-31 45.5-43 13.5-10.4 22-26.1 23.9-42.9-.4.1-.8.1-1.2.2zm-7.3 16.7c-6.9 23.9-35.6 27.1-53 40.3-6.3 4.8-11.7 12.1-13.7 19.8.4-15.3 13.9-27.4 26.2-35.6 13.1-8.7 27.4-16.4 35-30.7.4-.7-.7-1.3-1.1-.6-9.3 17.4-28.2 24.6-43 36.3-8.1 6.4-15.2 15.1-17.6 24.9.1-5.3 1.1-10.7 3.2-15.8 4.4-10.9 12.6-18.4 22.3-24.5 7.8-4.9 16-9.1 22.8-15.4 4.8-4.4 8.7-9.6 11.7-15.3-.5 0-1 .1-1.5.1-4.5 8.1-10.8 14.9-18.5 20.2-8.4 5.8-17.9 10.1-25.6 17-11.7 10.3-16.9 25.3-15.2 40-2.1-6.8-2.7-14-.8-21.1 2.8-10.3 10.1-18.7 17.5-26 8.7-8.7 18.9-17.6 24.4-28.6-.4 0-.9.1-1.3.1-7.3 14.4-22.9 24.9-32.8 37.4-5.2 6.6-9.2 14.2-10.1 22.7-.7 7 .8 13.9 3.4 20.3 0 .2.1.3.1.5 0 1.9.2 3.8.8 5.7.8-.6 1.8-1.1 2.8-1.5-.5-1-1-2-1.5-3.1-.2-.9-.5-1.8-.7-2.7.2-4.6 1.8-9.3 4.4-13.3 5.8-8.8 15.3-14.1 24.6-18.6 15.2-7.3 33.2-14.4 38.3-32.2.3-.8-.9-1.1-1.1-.3zm-66.6 25.7c6.6-8.3 15.5-15 17.6-26 .2-.8-1.1-1.1-1.2-.3-2.6 13.4-15.5 20.3-21.6 31.9-4.9 9.5-5.6 20.5-2.2 30.6.2.8 1.5.4 1.2-.3-4.1-12.4-1.9-25.7 6.2-35.9zm29.4 18c-7.9 4-13.5 11.2-15.6 19.8-.2.8 1 1.1 1.2.3 2-8.4 7.3-15.2 15-19.1.7-.3.1-1.4-.6-1z" fill="#ffffff" stroke-width="none" opacity="1"></path></g></g><g id="svga-group-humanbody-back"><path id="SvgjsPath8373" d="M86.5 107c0 18.8 2.7 50.3-8.1 58s-31.8 13.9-36.7 24.4-3.6 29.4-3.6 29.4h124.1s.6-23.1-4.2-30.4c-6.6-10.1-28.5-17.7-36.5-22.9-8.1-5.2-10.9-32.2-10.9-58.8l-24.1.3z" fill="#ffffff" stroke-width="none" opacity="1"></path></g><g id="svga-group-chinshadow-single"></g><g id="svga-group-humanbody-front"><path id="SvgjsPath8374" d="M163.4 220.1H37.2l-.3-.9c-.1-.5-1.3-19.7 3.6-30.3 3.4-7.3 13.6-12.4 23.5-17.4 5.1-2.5 9.9-5 13.6-7.5 8.6-6 8.1-29.8 7.7-47.1-.1-3.5-.1-6.8-.1-9.8v-1.3l26.7-.4v1.3c0 32 3.8 53.5 10.3 57.7 2.4 1.6 6 3.3 10.2 5.4 9.7 4.7 21.9 10.6 26.7 18 5 7.6 4.4 30.9 4.4 31.2l-.1 1.1zm-124.1-2.6h121.6c-.1-2.4-.6-23.2-4-28.4-4.4-6.7-16.2-12.5-25.6-17-4.3-2.1-8-3.9-10.5-5.5-9.8-6.3-11.4-38.8-11.5-58.6l-21.5.4c0 2.6.1 5.5.1 8.5.4 18.9.9 42.4-8.8 49.3-3.8 2.7-8.7 5.1-13.9 7.7-9.5 4.8-19.4 9.7-22.3 16.1-3.3 6.9-3.7 25.9-3.6 27.5z" fill="#000000" stroke-width="none" opacity="1"></path><path id="SvgjsPath8375" d="M76.8 173.7c4.8 2.3 10.4 3.9 15.7 2.9.4-.1.4-.7 0-.8-5.1-.9-10.2-1.4-15.2-3.2-.6-.2-1.1.8-.5 1.1zm31.5 2.4c2.4.3 4.9-.4 7.1-1.2 2.1-.8 4.3-1.7 5.8-3.4.5-.5-.1-1.2-.7-.9-2.1.9-3.9 2.3-6.1 3-2 .7-4.1 1-6.2 1.5-.6.1-.4.9.1 1z" fill="#000000" stroke-width="none" opacity="1"></path></g><g id="svga-group-clothes-single"><path id="SvgjsPath8494" d="M60.7 219h78.1c-.8-7.5.4-19.5 1.6-25.3 1.2-5.8 4.6-18 4.6-18-.7-4.8-5.1-3.1-5.1-3.1-.8-3.6-4.5-1.6-4.5-1.6-.1-2.2-2.9-2.7-3.9-1.5-1.1 1.2-2.7 5.9-5.8 11.5-3.1 5.7-6.9 10.7-11.1 15.1S100 206.9 100 206.9s-13.9-10.1-19.8-16.1c-5.9-6-12.1-21.2-12.1-21.2-2.8-2.2-3.9 1.2-3.9 1.2-3.8-2-5.3 1.9-5.3 1.9-4.2-1.6-4.5 2.6-4.5 2.6 1.1 2.9 4.2 12.6 5.5 24.3.8 7.4.8 19.4.8 19.4z" fill="#ffffff" stroke-width="none" opacity="1"></path><path id="SvgjsPath8495" d="M143.8 171.9c-1.1-.7-2.5-.7-3.4-.5-.4-.9-1.1-1.4-1.6-1.7-1-.5-2.1-.3-2.9-.1-.4-.7-1-1.3-1.8-1.6-1.3-.5-2.7-.2-3.5.7-.7.7-1.4 2.3-2.4 4.6-.9 2-2.1 4.4-3.5 7.1-2.8 5.2-6.4 10.1-10.9 14.9-3.5 3.7-11.5 8.9-13.7 10.2-2.6-1.9-14-10.4-19.2-15.6-5.7-5.8-11.8-20.7-11.8-20.9-.1-.2-.2-.3-.3-.4-1.1-.9-2.2-1.1-3.2-.8-.9.3-1.5.9-1.8 1.5-1.1-.4-2.1-.4-3 0-1.1.4-1.8 1.3-2.2 1.9-1.2-.3-2.3-.2-3.2.4-1.6 1.1-1.8 3.1-1.8 3.3 0 .1 0 .3.1.4 1.5 3.9 4.2 13.4 5.4 24.1.8 7.4.8 19.3.8 19.4 0 .3.1.5.3.7.2.2.4.3.7.3H139c.3 0 .6-.1.7-.3s.3-.5.2-.8c-.8-7.6.4-19.6 1.6-25 1.2-5.7 4.5-17.8 4.5-17.9v-.4c-.3-1.5-1-2.8-2.2-3.5zm-4.4 21.6c-1.1 5.3-2.3 16.7-1.7 24.5h-76v-3.8c1.4-.1 2.9-.3 4.2-.9.1-.1.1-.3-.1-.3-1.4.2-2.7.6-4.1.8v-2.2c.8.2 1.8-.2 2.6-.4 1-.2 2.1-.5 3.1-1 .1-.1 0-.2-.1-.2-.9.2-1.8.4-2.7.7-.9.2-2 .6-2.9.6v-1.6c1.5-.1 3.1-.3 4.5-.8.1 0 .1-.2 0-.2-1.5.1-3 .5-4.5.8v-1.4c1.1 0 2.3-.1 3.3-.5.1 0 .1-.2 0-.2-1.1.1-2.2.2-3.3.4 0-.5 0-.9-.1-1.4 1.6-.1 3.3-.3 4.7-.9.1-.1 0-.2-.1-.2-1.6.2-3.1.6-4.7.8 0-.5 0-1.1-.1-1.6 0 0 0 .1.1 0 1.7-.1 3.6-.3 5.3-1 .1 0 .1-.2 0-.2-1.8.2-3.5.6-5.3 1l-.1.1c0-.4 0-.9-.1-1.3 1.7-.2 3.7-.3 5.1-1.2.1-.1 0-.3-.1-.2-1.7.4-3.4.7-5.1 1 0-.5-.1-1-.1-1.5.7 0 1.4-.1 2-.5.1-.1.1-.2-.1-.2-.7.1-1.3.2-2 .4 0-.4-.1-.9-.1-1.3v-.4c.7-.1 1.4-.3 2-.7.1-.1.1-.2-.1-.2-.7 0-1.3.2-2 .4 0-.4-.1-.9-.2-1.3.8-.1 1.7-.2 2.5-.5.1-.1.1-.2 0-.2-.8-.1-1.7.1-2.5.3-.1-.6-.2-1.1-.2-1.6.8-.1 1.6-.2 2.3-.6.1 0 0-.2 0-.2-.8 0-1.6.3-2.3.4-.1-.5-.2-1-.2-1.5 0 .1 0 .1.1.1 1 .1 2.2 0 3.2-.6.1-.1 0-.2 0-.2-1 .1-2.1.4-3.1.5-.1 0-.1.1-.1.1-.1-.4-.1-.7-.2-1.1.4-.1.8-.2 1.2-.4.6-.2 1.2-.3 1.7-.6.1-.1 0-.2-.1-.2-1.1-.1-1.9.5-2.9.8-.1-.6-.2-1.3-.3-1.9 1-.1 1.9-.2 2.8-.5.1 0 .1-.2 0-.2-1 0-1.9.2-2.8.4l-.3-1.5c.6-.1 1.2-.3 1.7-.5.1 0 .1-.2 0-.2-.6 0-1.2.2-1.8.4-.1-.4-.2-.7-.2-1.1.6-.1 1.2-.2 1.7-.4.1-.1.1-.2 0-.2-.6-.1-1.2.1-1.8.2-.1-.4-.2-.9-.3-1.3.2-.1.5-.1.7-.2.4-.1.9-.1 1.3-.2.1 0 .2-.2 0-.3-.7-.3-1.4 0-2.1.2-.1-.3-.2-.6-.2-.9.8-.1 1.6-.3 2.2-.8.1-.1 0-.2-.1-.2-.8.1-1.5.4-2.3.6-.1-.4-.2-.7-.3-1.1.4-.1.7-.2 1-.3.5-.2.9-.2 1.4-.4.1 0 .1-.2 0-.2-.9-.2-1.7.4-2.5.6l-.3-1.2c.3-.1.5-.1.8-.3.5-.2 1-.3 1.5-.6.1-.1.1-.2 0-.2-.4-.1-.8 0-1.2.2-.4.2-.7.4-1.1.6-.1-.4-.2-.9-.4-1.3.3-.2.7-.3 1.1-.4.4-.1.8-.2 1.2-.4.1 0 .1-.2 0-.2-.8-.1-1.7.2-2.4.6-.2-.5-.3-1-.5-1.4l.9-.3c.4-.1.7-.2 1-.4.1-.1 0-.2-.1-.2-.4 0-.8.2-1.2.3-.2.1-.5.2-.7.3-.1-.3-.2-.7-.3-1 .4-.2.9-.4 1.3-.6.1 0 .1-.2 0-.2-.5-.1-1 0-1.5.3 0-.1-.1-.2-.1-.3h.1c.1 0 .1-.1.1-.1.3-.1.5-.3.8-.4.3-.2.6-.3.8-.5.1-.1 0-.2-.1-.2-.6.1-1.3.5-1.8.9.1-.4.3-1.2.9-1.6.5-.3 1.3-.3 2.2.1h.1c1.2 3.7 6.5 19.1 8.8 24.3.1.2.3.3.5.3h.2c.2-.1.4-.4.3-.7-.5-1.2-1.2-2.9-1.9-4.8.9-.5 1.9-.9 2.8-1.5.1-.1.1-.2-.1-.2-1.1.1-2 .6-2.9 1.2-.2-.6-.4-1.1-.6-1.7.8-.4 1.7-.8 2.4-1.2.1-.1 0-.2-.1-.2-.9.2-1.7.6-2.5 1.1-.2-.6-.4-1.1-.6-1.7.8-.4 1.7-.7 2.5-1.2.1-.1 0-.2-.1-.2-.9.1-1.7.6-2.5 1.1-.1-.4-.3-.8-.4-1.1.7-.4 1.5-.9 2.2-1.5.1-.1 0-.2-.1-.2-.8.3-1.5.9-2.2 1.4-.2-.5-.3-.9-.5-1.4.3-.2.7-.4 1-.6.5-.3 1-.4 1.5-.8.1-.1.1-.3-.1-.2-.9.1-1.8.7-2.5 1.2-.2-.5-.4-1.1-.5-1.6h.1c1-.7 2.1-1.1 3.2-1.6.1-.1.1-.2-.1-.2-1.2 0-2.4.8-3.4 1.5-.2-.5-.4-1.1-.5-1.6.9-.6 1.9-1 2.8-1.6.1-.1 0-.2-.1-.2-1 .2-2 .8-2.9 1.4-.2-.4-.3-.9-.4-1.3.6-.4 1.3-.6 1.9-1.1.1-.1 0-.2-.1-.2-.7.1-1.3.6-1.9 1-.2-.5-.3-1-.5-1.5.7-.6 1.6-.9 2.4-1.2.1-.1 0-.2 0-.2-.9 0-1.8.4-2.5 1-.2-.6-.4-1.2-.6-1.7.4 0 .8-.2 1.1-.4.4-.1.9-.3 1.3-.5.1-.1 0-.2-.1-.2-.5-.1-1.1.1-1.6.3-.3.1-.7.2-.9.4-.1-.4-.3-.8-.4-1.1h.1c.4-.4.9-.7 1.4-1.1.1-.1 0-.2-.1-.1-.6.2-1.1.6-1.5 1-.1-.3-.2-.5-.2-.7.1-.1.1-.2.2-.3 0 0 .5-1.2 1.5-1.6.7-.2 1.4-.1 2.3.3.1.1.2.1.3.1 1.6 4.6 8.4 23.6 16.2 29.8.1.1.2.1.3.1.2 0 .3-.1.4-.2.2-.2.1-.5-.1-.7.6-.4 1.3-.8 1.7-1.4.1-.1-.1-.3-.2-.2-.7.4-1.2.9-1.8 1.3-.3-.3-.7-.6-1-.9.7-.4 1.5-.9 2-1.6.1-.1 0-.2-.1-.2-.8.4-1.4 1-2.2 1.5-.8-.9-1.6-1.9-2.4-2.9.4-.2.8-.5 1.2-.8.1-.1 0-.2-.1-.2-.5.2-.9.4-1.3.7-.2-.3-.5-.7-.7-1 .4-.3.9-.7 1.3-1 .4-.3.9-.5 1.4-.9.1-.1 0-.2-.1-.2-1 .2-2 1-2.8 1.7-.3-.4-.6-.9-.8-1.3.3-.2.5-.4.8-.7.3-.2.6-.4.8-.7.1-.1 0-.2-.1-.2-.6.2-1.3.7-1.7 1.2l-.9-1.5c.3-.2.7-.4 1-.6.3-.2.7-.4 1-.7.1-.1 0-.3-.1-.2-.7.2-1.4.8-2 1.3-.2-.4-.5-.9-.7-1.4.7-.5 1.5-.9 2.2-1.4.1-.1 0-.2-.1-.2-.8.2-1.6.7-2.3 1.3l-.6-1.2c.5-.4 1.2-.8 1.7-1.2.1-.1 0-.2-.1-.2-.7.1-1.3.6-1.8 1.1-.2-.5-.5-1-.7-1.5.8-.5 1.7-.9 2.5-1.4.1-.1 0-.2-.1-.2-.9.2-1.8.7-2.6 1.2-.2-.4-.4-.9-.6-1.3.2-.1.4-.3.6-.4.3-.2.5-.3.8-.5.1-.1 0-.2-.1-.2-.5.1-.9.5-1.3.8-.2-.3-.3-.6-.4-1l.4-.4c.2-.2.5-.4.7-.6.1-.1 0-.2-.1-.2-.4.1-.8.5-1.1.9-.2-.5-.4-1-.6-1.4.5-.4 1-.6 1.4-.9.1-.1.1-.2-.1-.2-.6 0-1.1.4-1.6.8-.2-.5-.4-1-.7-1.5.2-.1.4-.3.7-.4.3-.2.6-.3.9-.5.1-.1.1-.2-.1-.2-.6 0-1.2.4-1.7.8-.2-.4-.3-.7-.4-1.1.4-.4.9-.6 1.4-.9.1 0 0-.1-.1-.1-.6.1-1 .4-1.4.8-.2-.5-.4-.9-.6-1.4.6-.3 1.2-.5 1.8-.8.1-.1.1-.2-.1-.2-.7 0-1.3.3-1.9.6-.1-.3-.2-.6-.3-.8.3-.2.7-.4 1.1-.5.1 0 0-.2-.1-.2-.4 0-.8.2-1.1.4-.2-.6-.4-1.1-.6-1.6.3-.3.7-.5 1.1-.8.1-.1 0-.2-.1-.2-.4 0-.8.3-1.1.5-.2-.5-.3-.9-.4-1.3.5-.7 1.2-1 1.8-1.5.1-.1.1-.2-.1-.2-.8.1-1.5.6-1.9 1.3-.1-.2-.1-.4-.2-.6.1-.1.1-.2.2-.3.1-.3.5-1.1 1-1.2.4-.1.8.1 1.2.3.9 2.1 6.5 15.6 12.2 21.3 5.9 6 19.4 15.8 20 16.2.3.2.8.3 1.1 0 .2-.1 2.5-1.5 5.3-3.5.2.1.3.2.5.2l.9.3c.1 0 .2-.1.1-.2-.3-.3-.7-.5-1-.6.3-.2.6-.4 1-.7.8.4 1.7.6 2.6.5.1 0 .1-.2 0-.2-.7-.2-1.5-.3-2.2-.6.4-.3.9-.6 1.3-.9 1.1.4 2.3.9 3.5.9.1 0 .1-.2 0-.2-1-.4-2.1-.6-3.2-.9.3-.3.7-.5 1.1-.8 1.2.7 2.8 1.2 4.2.9.1 0 .1-.2 0-.2-1.4-.2-2.6-.4-3.9-.9.6-.4 1.2-.9 1.7-1.4.9.7 2.1 1 3.2 1 .2 0 .2-.2 0-.3-.6-.2-1.2-.3-1.8-.5-.4-.1-.8-.3-1.1-.5.4-.3.7-.6 1-.9.1.1.3.2.5.3.7.3 1.5.6 2.3.6.1 0 .2-.2.1-.2-.5-.3-1-.4-1.6-.6-.3-.1-.7-.2-1-.4.5-.4.9-.9 1.3-1.3.5-.5 1-1.1 1.4-1.6 0 .6.7 1 1.2 1.4.8.5 1.7.9 2.6.9.1 0 .2-.2.1-.2-.6-.3-1.2-.4-1.8-.7-.5-.3-1.7-.8-1.7-1.5 0-.1 0-.1-.1-.1.2-.3.5-.5.7-.8.3.3.7.6 1.1.8.7.4 1.4.8 2.2 1 .1 0 .2-.1.1-.2-.6-.4-1.2-.7-1.8-1-.5-.3-1.1-.5-1.4-.9.3-.3.6-.6.8-1 .5.7 1.3 1.5 2.2 1.6.2 0 .2-.2.1-.2-.4-.3-.8-.4-1.2-.7-.3-.2-.7-.5-.9-.9.3-.4.6-.7.9-1.1.6.6 1.4 1.3 2.3 1.4.1 0 .2-.1.1-.2-.3-.3-.7-.4-1.1-.6-.4-.2-.8-.5-1.1-.8.2-.3.5-.6.7-.9.2.4.6.7 1 1 .6.4 1.3.8 2 .9.1 0 .2-.2.1-.2-.9-.7-2.2-1-2.8-2 .2-.3.4-.5.6-.8.5.6 1.1 1.3 1.8 1.4.1 0 .2-.1.1-.2-.3-.3-.8-.6-1.1-.9l-.7-.7c.3-.4.5-.7.8-1.1.7.8 1.7 1.5 2.7 1.4.1 0 .2-.2.1-.3-.5-.3-1.1-.4-1.6-.7-.3-.2-.7-.5-.9-.7.2-.3.4-.7.7-1 .4.3.8.6 1.2.7.1 0 .2-.1.1-.2-.4-.2-.8-.4-1.2-.7.2-.4.5-.8.8-1.1v.1c.6.6 1.3 1.2 2.2 1.2.1 0 .2-.2.1-.2-.7-.4-1.4-.6-2.1-1.2h-.1l.9-1.5c.2.2.4.3.7.4.6.2 1.2.4 1.8.4.1 0 .2-.2.1-.2-.7-.4-1.8-.4-2.4-.9.3-.5.6-1 .8-1.5.5.6 1.3.9 2 .9.1 0 .2-.2.1-.3-.3-.2-.8-.3-1.1-.5-.3-.1-.5-.3-.7-.5.3-.6.7-1.3 1-1.9.5.6 1.3 1.3 2.1 1.2.1 0 .2-.2.1-.3-.3-.2-.7-.3-1-.5-.4-.2-.7-.5-1-.8.2-.4.4-.8.6-1.1.5.3 1 .5 1.6.5.1 0 .1-.1 0-.1-.5-.1-1-.3-1.5-.6.2-.5.4-.9.6-1.3.6.4 1.3.8 2 .7.1 0 .1-.2 0-.2-.3-.2-.7-.2-1-.4-.3-.1-.6-.3-.8-.4.3-.6.6-1.2.8-1.8v.1c.4.5 1 1.1 1.7 1.1.1 0 .2-.2.1-.2-.2-.2-.5-.2-.8-.4-.3-.2-.5-.4-.7-.6-.1-.1-.1-.1-.2 0 .2-.4.4-.9.6-1.3.6.4 1.3.9 2 .9.1 0 .1-.2.1-.2-.3-.2-.6-.3-1-.5-.3-.1-.7-.3-1-.5h-.1l.6-1.2c.6.3 1.2.6 1.8.6.1 0 .1-.1.1-.2-.5-.4-1.1-.5-1.7-.8.1-.3.3-.5.4-.6.6.2 1.2.5 1.8.6.1 0 .1-.1.1-.2-.5-.3-1.1-.5-1.6-.6l.1-.1c.3-.3.9-.4 1.4-.2.4.1.8.4.8 1.1 0 .2.1.4.2.5-1.6 3.9-8.9 21.7-14.9 27.7-.2.2-.2.5 0 .7.1.1.2.1.3.1s.3-.1.4-.1c.5-.6 1.1-1.2 1.7-1.9.3.2.6.4 1 .6.3.2.6.4 1 .4.1 0 .2-.1.1-.2-.2-.3-.6-.4-.9-.6-.3-.1-.6-.3-.9-.4l.9-1.2c.7.5 1.7 1 2.6.9.2 0 .2-.2.1-.3-.4-.2-.8-.4-1.3-.5-.4-.1-.8-.3-1.1-.5.3-.4.6-.9.9-1.4.9.6 2 1.4 3 1.6.1 0 .2-.1.1-.2-.4-.4-1-.6-1.5-.9-.5-.3-1-.5-1.4-.8.3-.4.5-.8.8-1.2.8.7 1.8 1.4 2.8 1.6.1 0 .2-.1.1-.2-.5-.4-1.1-.6-1.6-.9-.4-.2-.8-.5-1.2-.8.3-.5.5-.9.8-1.4 1 .5 1.9 1.1 2.9 1.6.1 0 .2-.1.1-.2-.8-.7-1.9-1.2-2.9-1.6.2-.4.5-.9.7-1.3.8.4 1.7.9 2.6 1 .1 0 .2-.1.1-.2-.7-.5-1.6-.8-2.5-1.1.2-.4.4-.8.7-1.2.6.4 1.3.9 2.1.9.1 0 .2-.2.1-.2-.3-.2-.8-.3-1.1-.5-.3-.1-.6-.3-.9-.5.2-.4.4-.8.6-1.1.6.5 1.4.9 2.1.7.1 0 .1-.2 0-.2-.3-.1-.6-.1-1-.2s-.7-.3-1-.5l.6-1.2c.3.1.7.2 1 .3.3.2.6.4 1 .6.1.1.2-.1.2-.2-.3-.7-1.2-1-1.9-1.1.2-.4.4-.7.5-1.1.6.3 1.3.5 2 .6.1 0 .1-.1 0-.2-.6-.3-1.3-.5-1.9-.8.2-.4.4-.8.5-1.1.7.3 1.5.6 2.2.4.1 0 .1-.2 0-.2-.7-.2-1.4-.3-2.1-.5.2-.5.4-.9.6-1.4.6.5 1.5.7 2.2.4.1 0 .1-.2 0-.2-.7-.2-1.5-.1-2.1-.6.2-.4.3-.7.5-1.1.4.2.9.3 1.4.1.1 0 .1-.2 0-.2-.2-.1-.5-.1-.7-.2-.1 0-.3-.1-.4-.1.2-.4.4-.8.5-1.2.6.1 1.3.4 2 .3.1 0 .1-.1.1-.2-.6-.3-1.3-.3-1.9-.4.2-.5.4-.9.6-1.4.6.4 1.3.8 2.1.8.1 0 .2-.2.1-.2-.6-.4-1.3-.5-2-.8.2-.4.3-.7.4-1 .5.4 1.3.8 2 .7.1 0 .2-.2.1-.2-.2-.2-.6-.3-.9-.4-.3-.1-.7-.3-1-.5.1-.3.2-.5.3-.7.4.6 1.3 1.1 2 .8.1-.1.1-.2 0-.2-.7-.2-1.2-.3-1.7-.8 0-.1-.1-.1-.1-.1.2-.5.4-1 .5-1.3.1 0 .3 0 .4-.1.3-.1 1.5-.6 2.3-.3.1.1.6.3.8 1.2 0 .1.1.2.1.3-1.3 4.1-6.9 21-17.5 37.9-.2.2-.1.5.2.7.1.1.2.1.3.1.2 0 .3-.1.4-.2 1.2-1.9 2.3-3.8 3.4-5.7.4.3.8.7 1.4.8.1 0 .2-.1.1-.2-.4-.4-.9-.6-1.3-.9.4-.8.9-1.6 1.3-2.4 1.1.5 2.2.9 3.3 1.4.2.1.2-.1.1-.3-.4-.5-1-.7-1.5-.9-.6-.2-1.2-.4-1.7-.6.3-.6.6-1.1.9-1.6.2.3.5.5.9.6.5.2 1.1.5 1.7.5.1 0 .2-.2.1-.3-.7-.6-1.8-.6-2.4-1.2.2-.4.5-.9.7-1.4.7.5 1.7 1 2.5.7.1 0 .1-.2 0-.3l-1.2-.3c-.4-.1-.8-.3-1.2-.5l.6-1.2c1.1.6 2.5 1.2 3.8 1 .2 0 .2-.2 0-.3-1.2-.4-2.4-.7-3.6-1.1.2-.4.4-.9.6-1.3.9.6 2.1 1.1 3.2.9.2 0 .1-.2 0-.3-.5-.2-1.1-.2-1.6-.4l-1.5-.6.6-1.2c1.1.5 2.4 1 3.6.9.1 0 .2-.2 0-.2-1.1-.4-2.3-.6-3.5-1 .1-.2.2-.5.3-.7 1 .3 2 .7 3 .6.1 0 .2-.2.1-.2-.9-.5-1.9-.6-2.9-.8.2-.4.4-.9.6-1.3.6.1 1.4.3 2 .1.1-.1.1-.2 0-.3-.3-.1-.7-.1-1-.1-.3 0-.5 0-.8-.1.3-.6.6-1.2.8-1.8l.1.1c.7.1 1.5.2 2.2-.1.1-.1.1-.2 0-.2-.7-.2-1.4-.1-2.1-.1.5-1.1.9-2.2 1.4-3.3.6.1 1.3.3 1.9.1.1 0 .1-.2 0-.2-.6-.1-1.2-.1-1.8-.2.4-1.1.8-2.1 1.2-3 .6.2 1.5.5 2.1.2.1-.1.1-.2 0-.2-.3-.1-.6-.1-.9-.1-.3 0-.7-.1-1-.2.1-.4.3-.8.4-1.2 1.2.2 2.6.5 3.8.2.1 0 .1-.2 0-.3-1-.2-2.1-.2-3.2-.3 0-.1 0-.1-.1-.1h-.3c.2-.4.3-.9.5-1.3.7.2 1.8.4 2.5.2.1-.1.1-.2 0-.3-.3-.1-.7-.1-1.1-.1-.4 0-.9-.1-1.3-.1.2-.4.3-.9.4-1.3.7.2 1.7.4 2.4.2.1 0 .1-.2 0-.3-.4-.1-.8-.1-1.2-.1-.4 0-.7-.1-1.1-.2.2-.6.4-1.1.6-1.6.9 0 1.8.2 2.6.2.1 0 .2-.2.1-.2-.8-.4-1.7-.4-2.6-.3.2-.5.3-.9.4-1.3 0 0 0 .1.1.1.7.4 1.4.7 2.2.7.1 0 .1-.2 0-.2-.7-.3-1.4-.4-2.1-.7h-.2c.1-.3.2-.5.2-.7h.3s1.6-.5 2.7.1c.6.4 1 1 1.1 2-1.6 1.5-4.6 12.4-5.7 17.7zm-68.3.9c-1.1.3-2.1.9-3.2 1.4-.2.1 0 .4.2.3 1-.5 2.1-.9 3.1-1.6.1 0 0-.2-.1-.1zM70 193c-1 .3-1.9.8-2.7 1.3-.2.1 0 .4.2.3.9-.5 1.8-.9 2.7-1.4 0-.1-.1-.3-.2-.2zm8.4 4.5c-.1 0 0 .1 0 0 .3-.1.7-.3 1-.5 0 0 0-.1 0 0-.4.1-.7.3-1 .5zm39.6.7c-.9-.3-1.7-.5-2.5-1-.1-.1-.3.1-.1.2.8.5 1.7.9 2.6 1 .1 0 .1-.1 0-.2zm19.9-25.5c-.6-.4-1.5-.5-2.3-.5-.2 0-.2.3 0 .3.8 0 1.4.3 2.2.4.1 0 .2-.1.1-.2zm-1.8 11.5c-.2 0-.2.3-.1.4.8.2 1.6.5 2.4.6.1 0 .2-.1.1-.2-.6-.5-1.6-.7-2.4-.8zm1.8 3.4c-1-.2-2.2-.1-3.2.1-.3.1-.2.4.1.4 1 0 2.1 0 3.1-.2.2 0 .2-.3 0-.3zm-11.1 16.7c-.1-.1-.3 0-.2.2.5.7 1.3 1.3 2.2 1.2.1 0 .1-.2 0-.2-.7-.3-1.4-.6-2-1.2z" fill="#000000" stroke-width="none" opacity="1"></path></g><g id="svga-group-head" transform="matrix(1,0,0,1,0,0)"><g id="svga-group-ears-left-move" transform="matrix(1,0,0,1,0,0)"><g id="svga-group-ears-left"><path id="SvgjsPath8325" d="M64.8 80.5c-.2-.3-3.3-4.3-5.9-6.7s-3.4-2.4-4.6-.9c-1.3 1.5-2.9 9.1-2.5 12.4.4 3.4 3.6 8.7 5.2 11.7 1.7 3 3.3 6.7 5.1 6.3 1.9-.4 4.4-4.6 5.7-7.7 1.2-3.1.6-10.9-3-15.1z" fill="#ffffff" stroke-width="none" opacity="1"></path><path id="SvgjsPath8326" d="M56.9 98.9c-.3-.5-.5-1-.8-1.4l-.6-1c-1.8-3.1-4.4-7.8-4.8-11-.4-3.5 1.2-11.4 2.7-13.2.6-.7 1.2-1.3 2.2-1.4 1.2-.1 2.3.7 3.9 2.2 1.6 1.4 3.5 3.6 5.8 6.5l.2.3c3.9 4.6 4.5 12.8 3.2 16.1-1.1 3-3.9 7.8-6.4 8.3h-.5c-2 .1-3.4-2.6-4.9-5.4zm7.2-17.8s-.1-.1-.2-.3c-2.2-2.8-4.1-5-5.6-6.3-1.2-1.1-2.1-1.7-2.4-1.7-.2 0-.4.2-.8.7-1 1.2-2.6 8.4-2.3 11.7.3 2.8 2.8 7.3 4.5 10.3l.6 1c.3.5.5 1 .8 1.4.9 1.7 2.5 4.6 3.3 4.4 1.2-.2 3.6-3.7 4.9-7.1 1.1-2.8.4-10.2-2.8-14.1z" fill="#000000" stroke-width="none" opacity="1"></path><path id="SvgjsPath8327" d="M54 87c-.3-2.3-.5-7.8.8-9.6 2.2-2.9 6 6.4 6.9 9.3 0 .1.1.2.1.3.2.3-.1.7-.4.6-.4-.2-.9-.6-1.3-.8-1.1-.5-1.6.5-1.3 1.8.4 1.8 1.4 2.9 2.2 4.3.1.2 0 .4-.2.3-1.6-.9-3.5-4.5-3.1-6.6.3-2 1.9-1.8 3.1-.8-.7-1.7-1.5-3.3-2.5-4.8-.6-.9-1.2-2-2.2-2.2-1.2-.2-1 .3-1.2 1.8-.8 4.8-.3 10.4 2.5 14.5.1.1 0 .2-.1.1-1.7-2.3-2.9-4.9-3.3-8.2z" fill="#000000" stroke-width="none" opacity="1"></path></g></g><g id="svga-group-ears-right-move" transform="matrix(1,0,0,1,0,0)"><g id="svga-group-ears-right"><path id="SvgjsPath8328" d="M135.2 80.5c.2-.3 3.3-4.3 5.9-6.7 2.6-2.4 3.4-2.4 4.6-.9s2.9 9.1 2.5 12.4c-.4 3.4-3.6 8.7-5.2 11.7-1.7 3-3.3 6.7-5.1 6.3s-4.4-4.6-5.7-7.7c-1.2-3.1-.6-10.9 3-15.1z" fill="#ffffff" stroke-width="none" opacity="1"></path><path id="SvgjsPath8329" d="M138.1 104.4h-.5c-2.5-.5-5.2-5.4-6.4-8.3-1.3-3.4-.7-11.5 3.2-16.1l.2-.3c2.3-2.9 4.2-5.1 5.8-6.5 1.6-1.4 2.7-2.2 3.9-2.2 1 .1 1.6.7 2.2 1.4 1.5 1.8 3.1 9.7 2.7 13.2-.4 3.2-3 7.9-4.8 11l-.6 1c-.3.5-.5.9-.8 1.4-1.4 2.7-2.8 5.4-4.9 5.4zm-2.2-23.3c-3.2 3.9-3.9 11.2-2.8 14.1 1.3 3.4 3.7 6.9 4.9 7.1.8.2 2.4-2.7 3.3-4.4.3-.5.5-1 .8-1.4l.6-1c1.7-3 4.2-7.5 4.5-10.3.4-3.3-1.3-10.5-2.3-11.7-.4-.4-.6-.7-.8-.7-.3 0-1.2.5-2.4 1.7-1.5 1.4-3.3 3.5-5.6 6.3 0 .2-.1.3-.2.3z" fill="#000000" stroke-width="none" opacity="1"></path><path id="SvgjsPath8330" d="M146 87c.3-2.3.5-7.8-.8-9.6-2.2-2.9-6 6.4-6.9 9.3 0 .1-.1.2-.1.3-.2.3.1.7.4.6.4-.2.9-.6 1.3-.8 1.1-.5 1.6.5 1.3 1.8-.4 1.8-1.4 2.9-2.2 4.3-.1.2 0 .4.2.3 1.6-.9 3.5-4.5 3.1-6.6-.3-2-1.9-1.8-3.1-.8.7-1.7 1.5-3.3 2.5-4.8.6-.9 1.2-2 2.2-2.2 1.2-.2 1 .3 1.2 1.8.8 4.8.3 10.4-2.5 14.5-.1.1 0 .2.1.1 1.7-2.3 2.9-4.9 3.3-8.2z" fill="#000000" stroke-width="none" opacity="1"></path></g></g><g id="svga-group-faceshape-wrap"><g id="svga-group-faceshape-single"><path id="SvgjsPath8357" d="M138.2 58.2c-2-10.8-13.3-27.4-37.2-27.4S69.1 43.5 65.5 53c-3 8.1-3 21.3-3 21.3s.4 28.4 10 46.1c9.3 17 28.9 31.8 46.2 11.8 21.5-24.8 20.6-57.8 20.6-57.8s.3-8.5-1.1-16.2z" fill="#ffffff" stroke-width="none" opacity="1"></path><path id="SvgjsPath8358" d="M100.7 143.1c-.8 0-1.5 0-2.3-.1-11.8-1.3-21.7-12.2-27-22-9.6-17.7-10.2-45.5-10.2-46.7 0-.6 0-13.6 3.1-21.8 5.8-15.5 17.8-23 36.7-23 10.9 0 20.5 3.4 27.7 10 5.5 5 9.6 11.9 10.8 18.5 1.4 7.6 1.2 15.7 1.2 16.4s.1 8.8-2.3 19.9c-2.3 10.5-7.4 25.8-18.7 38.8-5.8 6.6-12.2 10-19 10zm.3-111c-17.7 0-28.9 7-34.3 21.3-2.9 7.8-2.9 20.8-2.9 20.9 0 .3.5 28.3 9.9 45.5 5 9.2 14.2 19.5 25 20.6 6.8.7 13.3-2.3 19.1-9.1 20.9-24.1 20.3-56.6 20.3-57 0-.1.2-8.4-1.2-15.9-1.1-6-4.8-12.4-10-17-6.6-6.1-15.6-9.3-25.9-9.3z" fill="#000000" stroke-width="none" opacity="1"></path></g></g><g id="svga-group-mouth-single-move" transform="matrix(1,0,0,1,0,0)"><g id="svga-group-mouth-single"><path id="SvgjsPath8315" d="M113.06 120.65c-.29.14-.56.24-.84.34-.01 0-.01-.01-.02-.01-2.76-.78-4.09-3.51-6.88-4.24-2.03-.53-4.09.07-5.57 1.36-.96-1.17-2.54-1.53-4.11-1.13-3.23.82-4.73 4.14-8.26 4.42-.07.01-.11.04-.16.07-.14-.04-.29-.06-.43-.1-.33-.1-.47.37-.14.47.49.15.96.24 1.42.31.03.06.08.11.16.13 2.63.87 4.33 3.03 6.8 4.17 2.02.93 4.33 1.35 6.59 1.22 4.32-.25 8.06-2.62 10.16-5.98.53-.17 1.05-.37 1.56-.61.3-.14.03-.56-.28-.42zm-21.53-.48c1.94-1.45 5.67-4.76 7.9-1.66.02.02.04.02.06.04.07.15.27.25.42.1 2.43-2.33 5.66-1.82 8.07.2 1.11.93 2.12 1.83 3.48 2.37 0 0-.01 0-.01.01l-.01.01c-2.11.55-3.97.14-6.35-.24-.06-.01-.12-.01-.18-.01.11-.14.2-.3.22-.48.02-.13-.04-.26-.19-.3-.13-.03-.31.04-.33.17-.04.27-.22.49-.52.59-.16.01-.32.02-.48.05.42-.49.65-1.08.65-1.72 0-.32-.54-.32-.54 0-.01.7-.32 1.32-.91 1.78-.05.04-.06.09-.07.13-.9.25-1.79.59-2.8.66-1.02.07-1.95-.24-2.87-.53-.65-.49-1.06-1.19-1.12-1.97-.02-.31-.56-.32-.54 0 .04.63.28 1.19.66 1.69-.54-.13-1.09-.21-1.67-.14-.87.11-1.66.53-2.51.72-1.17.26-2.34.26-3.49.09 1.18-.28 2.16-.83 3.13-1.56zm8.09 6.98c-2.63-.23-4.94-1.24-6.96-2.75-1.05-.78-2.02-1.56-3.18-2.13 1.27.02 2.51-.2 3.89-.56.55-.15 1.01-.2 1.44-.19-.21.25-.41.51-.62.76-.21.25.26.5.47.25l.78-.96c.56.09 1.1.26 1.78.47.24.07.47.13.71.19-.38.38-.64.83-.77 1.33-.08.31.45.44.52.13.12-.48.37-.9.75-1.24.04-.04.04-.08.05-.12.25.04.49.06.74.07-.7 1-.92 2.17-.6 3.32.08.31.61.18.52-.13-.31-1.13-.06-2.24.7-3.18.01-.01.01-.01.01-.02.06 0 .12 0 .18-.01 1.03-.08 1.86-.51 2.83-.77.7-.19 1.32-.19 1.92-.11 1.2.51 1.99 1.59 2.03 2.8.01.31.55.32.54 0-.03-.98-.48-1.87-1.22-2.53.48.11.98.23 1.51.3 1.16.15 2.29.08 3.38-.18-2.42 3.52-6.73 5.66-11.4 5.26z" fill="#000000" stroke-width="none" opacity="1"></path></g></g><g id="svga-group-eyes-left-move" transform="matrix(1,0,0,1,0,0)"><g id="svga-group-eyes-left"><g id="svga-group-eyesback-left"></g><g id="svga-group-eyesiriswrapper-left"><g id="svga-group-eyesiriscontrol-left" transform="matrix(1,0,0,1,0,0)"><g id="svga-group-eyesiris-left"><path id="SvgjsPath8390" d="M85 84.8c-1-1.9-3.2-2.7-5.2-2-2.2.8-3.8 3-3.1 5.4.4 1.2 1.5 2.4 2.8 2.7.5.1 1 .1 1.5.1.5.1 1.1 0 1.7-.2 2.4-.9 3.5-3.7 2.3-6z" fill="#ffffff" stroke-width="none" opacity="1"></path><path id="SvgjsPath8391" d="M83.4 85.8c0-.1 0-.1-.1-.1-.6-1.1-2-1.5-3.1-1 .2.2.4.5.6.7.2.3.5 1 .1 1.2-.4.2-1 0-1.3-.2-.2-.1-.3-.3-.5-.5 0 .1-.1.1-.1.2-.1.2-.1.4-.1.6-.2.7 0 1.4.5 1.9.2.2.5.3.8.4.6.3 1.2.4 1.8.1-.1-.1-.2-.2-.2-.4 0-.3.2-.6.5-.7.3-.1.6 0 .7.2.3-.3.5-.7.6-1.1.2-.3.1-.9-.2-1.3zm-2 5.3H81c-.5 0-1 0-1.4-.1-1.3-.3-2.4-1.4-2.9-2.8-.8-2.5.9-4.8 3.1-5.5 2.1-.8 4.4.1 5.4 2 .6 1.1.7 2.5.2 3.7s-1.4 2.1-2.6 2.5c-.5.2-1 .2-1.4.2zm-.4-.3c.6.1 1.1 0 1.6-.2 1.1-.4 2-1.2 2.4-2.4.4-1.1.4-2.3-.2-3.4-.9-1.8-3.1-2.6-5-1.9-2.1.7-3.7 2.9-3 5.2.4 1.3 1.5 2.3 2.7 2.6.5.1 1 .1 1.5.1z" fill="#000000" stroke-width="none" opacity="1"></path></g></g></g><g id="svga-group-eyesfront-left"><path id="SvgjsPath8430" d="M81.02 74.43c-6.9 0-12.5 5.6-12.5 12.5s5.6 12.5 12.5 12.5 12.5-5.6 12.5-12.5-5.6-12.5-12.5-12.5zm6.92 16.9c-.4-.18-1.61.18-4.87.09s-6.62-.98-9.25-2.5c-2.64-1.52-3.31-5.23-3.31-5.23s3.71-.72 8.67-.54 7.65 1.92 8.54 3.4c.89 1.48 1.83 4.43 1.83 4.43-.05.57-1.21.53-1.61.35z" fill="#ffffff" stroke-width="none" opacity="1"></path><path id="SvgjsPath8431" d="M90.45 92.29c.37-1.74.34-3.67-.41-5.27-.09-.19-.39-.09-.38.1.04.89.08 1.74.08 2.59-.63-1.8-1.72-4.14-3.36-5.41-1.79-1.38-5.88-1.92-9.75-1.85a.507.507 0 0 0-.3-.17c-2.87-.49-3.07-1.83-3.07-1.84a.536.536 0 0 0-.58-.51c-.3.02-.53.27-.51.58 0 .07.1 1.24 1.69 2.11-.42.04-.84.09-1.23.15-3.29.01-4.07-1.65-4.11-1.72a.557.557 0 0 0-.71-.29c-.28.12-.41.43-.29.71.03.07.55 1.25 2.38 1.89l-.1.03-.13.06c-.07.04-1.77 1.13-3.67-.2a.546.546 0 1 0-.62.9c2.31 1.61 4.42.5 4.83.25.09-.03.18-.05.27-.08-.09.12-.13.27-.09.43.07.33 1.68 7.29 13.26 7.29 1.29 0 2.71-.09 4.27-.28.3-.04.51-.31.47-.61a.542.542 0 0 0-.61-.47c-14.42 1.79-16.26-5.83-16.33-6.16a.511.511 0 0 0-.31-.37c4.36-1.03 12.29-.75 14.6 1.03 2.53 1.95 3.65 7.15 3.67 7.21.02.1.08.19.15.26l-.03.22c-.09.49.62.7.76.21.06-.2.11-.4.15-.6 0-.07.01-.13.01-.19z" fill="#000000" stroke-width="none" opacity="1"></path></g></g></g><g id="svga-group-eyes-right-move" transform="matrix(1,0,0,1,0,0)"><g id="svga-group-eyes-right"><g id="svga-group-eyesback-right"></g><g id="svga-group-eyesiriswrapper-right"><g id="svga-group-eyesiriscontrol-right" transform="matrix(1,0,0,1,0,0)"><g id="svga-group-eyesiris-right"><path id="SvgjsPath8392" d="M123.4 84.8c-1-1.9-3.2-2.7-5.2-2-2.2.8-3.8 3-3.1 5.4.4 1.2 1.5 2.4 2.8 2.7.4.1.9.1 1.4.1.5.1 1.1 0 1.7-.2 2.5-.9 3.6-3.7 2.4-6z" fill="#ffffff" stroke-width="none" opacity="1"></path><path id="SvgjsPath8393" d="M121.8 85.8c0-.1 0-.1-.1-.1-.6-1.1-2-1.5-3.1-1 .2.2.4.5.6.7.2.3.5 1 .1 1.2-.4.2-1 0-1.3-.2-.2-.1-.3-.3-.5-.5 0 .1-.1.1-.1.2-.1.2-.1.4-.1.6-.2.7 0 1.4.5 1.9.2.2.5.3.8.4.6.3 1.2.4 1.8.1-.1-.1-.2-.2-.2-.4 0-.3.2-.6.5-.7.3-.1.6 0 .7.2.3-.3.5-.7.6-1.1.2-.3 0-.9-.2-1.3zm-2.1 5.3h-.4c-.5 0-1 0-1.4-.1-1.3-.3-2.4-1.4-2.9-2.8-.8-2.5.9-4.8 3.1-5.5 2.1-.8 4.4.1 5.4 2 .6 1.1.7 2.5.2 3.7s-1.4 2.1-2.6 2.5c-.5.2-.9.2-1.4.2zm-.3-.3c.6.1 1.1 0 1.6-.2 1.1-.4 2-1.2 2.4-2.4.4-1.1.4-2.3-.2-3.4-.9-1.8-3.1-2.6-5-1.9-2.1.7-3.7 2.9-3 5.2.4 1.3 1.5 2.3 2.7 2.6.5.1 1 .1 1.5.1z" fill="#000000" stroke-width="none" opacity="1"></path></g></g></g><g id="svga-group-eyesfront-right"><path id="SvgjsPath8432" d="M118.98 74.43c-6.9 0-12.5 5.6-12.5 12.5s5.6 12.5 12.5 12.5 12.5-5.6 12.5-12.5-5.59-12.5-12.5-12.5zm6.93 14.74c-2.64 1.52-5.99 2.41-9.25 2.5s-4.47-.27-4.87-.09c-.4.18-1.56.22-1.61-.36 0 0 .94-2.95 1.83-4.43s3.58-3.22 8.54-3.4c4.96-.18 8.67.54 8.67.54s-.67 3.72-3.31 5.24z" fill="#ffffff" stroke-width="none" opacity="1"></path><path id="SvgjsPath8435" d="M134.5 83.64a.546.546 0 0 0-.76-.14c-1.9 1.32-3.6.24-3.67.2l-.13-.06-.1-.03c1.82-.64 2.35-1.82 2.38-1.89a.553.553 0 0 0-.29-.71.536.536 0 0 0-.71.29c-.03.07-.81 1.73-4.11 1.72-.4-.06-.81-.11-1.23-.15 1.59-.87 1.69-2.05 1.69-2.11.02-.3-.21-.56-.51-.58a.536.536 0 0 0-.58.51c0 .01-.2 1.35-3.07 1.84-.12.02-.22.09-.3.17-3.87-.07-7.96.47-9.75 1.85-2.84 2.19-4.02 7.61-4.07 7.84-.06.3.13.58.42.65a.545.545 0 0 0 .64-.42c.01-.05 1.14-5.26 3.67-7.21 2.31-1.78 10.24-2.06 14.6-1.03-.15.07-.28.2-.31.37-.07.33-1.91 7.95-16.33 6.16a.55.55 0 0 0-.61.47c-.04.3.18.57.47.61 1.56.19 2.98.28 4.27.28 11.58 0 13.19-6.96 13.26-7.29a.577.577 0 0 0-.09-.43c.09.03.18.05.27.08.41.25 2.52 1.36 4.83-.25.23-.15.29-.49.12-.74z" fill="#000000" stroke-width="none" opacity="1"></path></g></g></g><g id="svga-group-facehighlight-single"></g><g id="svga-group-eyebrows-left-move" transform="matrix(1,0,0,1,0,0)"><g id="svga-group-eyebrows-left-rotate" transform="matrix(1,1.7453292519943295e-9,-1.7453292519943295e-9,1,1.337295145731332e-7,-1.3852445590600837e-7)"><g id="svga-group-eyebrows-left"><path id="SvgjsPath8472" d="M66.31 78.71c1.61-1.61 4.74-3.82 8.03-3.97 3.29-.15 11.39 3.97 13.15 4.82 1.76.84 3.29 1.61 4.13.76.84-.84 1.3-1.76.15-2.9-1.15-1.15-12.23-5.12-16.43-4.82-4.22.3-9.03 6.11-9.03 6.11z" fill="#ffffff" stroke-width="none" opacity="1"></path><path id="SvgjsPath8473" d="M65.99 79.06c.19.17.47.16.65-.02 1.68-1.68 4.71-3.7 7.71-3.84 2.87-.14 9.97 3.33 12.3 4.47.25.12.46.23.62.3l.13.06c1.18.57 2.32 1.11 3.26 1.11.48 0 .91-.14 1.27-.5.46-.46 1.86-1.86.15-3.57-1.31-1.31-12.6-5.26-16.8-4.95-4.35.32-9.15 6.04-9.35 6.28-.15.21-.13.49.06.66zm9.86-6.01c.52 0 1.12.05 1.76.14l2.57 2.55c-.71-.28-1.43-.53-2.11-.75l-2.83-1.91c.04 0 .07-.01.11-.01.16-.01.33-.02.5-.02zm5.85 3.31-3.02-2.99c.73.14 1.51.31 2.3.51l3.23 3.59c-.78-.36-1.63-.74-2.51-1.11zm3.84-1.13c.73.25 1.42.49 2.06.73l2.2 4.07c-.28-.09-.59-.21-.91-.35l-3.35-4.45zm5.06 4.97-2.09-3.88c.54.22 1.03.42 1.45.61L91 80.15c-.12.04-.25.05-.4.05zm.92-.49-.78-2.39c.33.17.57.32.68.43.69.68.73 1.23.1 1.96zm-5.83-1.55-3.59-3.98c.8.22 1.6.46 2.39.71l3.18 4.23c-.16-.07-.36-.17-.6-.29-.38-.18-.85-.42-1.38-.67zm-14.84-3.07c1.1-.81 2.32-1.51 3.51-1.84l1.82 1.23c-.71-.15-1.35-.24-1.88-.21-1.17.05-2.34.36-3.45.82z" fill="#000000" stroke-width="none" opacity="1"></path></g></g></g><g id="svga-group-eyebrows-right-move" transform="matrix(1,0,0,1,0,0)"><g id="svga-group-eyebrows-right-rotate" transform="matrix(1,1.7453292519943295e-9,-1.7453292519943295e-9,1,1.3374697971357818e-7,-2.1054034959888668e-7)"><g id="svga-group-eyebrows-right"><path id="SvgjsPath8474" d="M133.69 78.71c-1.61-1.61-4.74-3.82-8.03-3.97-3.29-.15-11.39 3.97-13.15 4.82-1.76.84-3.29 1.61-4.13.76-.84-.84-1.3-1.76-.15-2.9 1.15-1.15 12.23-5.12 16.43-4.82 4.22.3 9.03 6.11 9.03 6.11z" fill="#ffffff" stroke-width="none" opacity="1"></path><path id="SvgjsPath8475" d="M134.06 78.41c-.2-.24-4.99-5.97-9.35-6.28-4.2-.31-15.49 3.64-16.8 4.95-1.71 1.71-.31 3.11.15 3.57.36.36.79.5 1.27.5.94 0 2.08-.54 3.26-1.11l.13-.06c.16-.08.37-.18.62-.3 2.33-1.14 9.43-4.61 12.3-4.47 3 .14 6.03 2.15 7.71 3.84a.478.478 0 0 0 .71-.64zm-9.42-5.34c.04 0 .07.01.11.01l-2.83 1.91c-.68.22-1.39.48-2.11.75l2.57-2.55c.64-.09 1.24-.14 1.76-.14.18 0 .35.01.5.02zm-8.86 4.4 3.23-3.59c.8-.2 1.57-.37 2.3-.51l-3.02 2.99c-.87.37-1.72.75-2.51 1.11zm-4.67 2.22c-.32.14-.62.26-.91.35l2.2-4.07c.64-.24 1.34-.49 2.06-.73l-3.35 4.45zm-2.11.46 1.05-3.22c.42-.19.91-.4 1.45-.61l-2.09 3.88c-.16 0-.29-.01-.41-.05zm-.42-2.4c.11-.11.35-.26.68-.43l-.78 2.39c-.63-.73-.59-1.28.1-1.96zm4.35 1.08c-.25.12-.45.22-.6.29l3.18-4.23c.79-.25 1.59-.49 2.39-.71l-3.59 3.98c-.53.25-1 .49-1.38.67zm12.76-4.56c-.53-.02-1.17.06-1.88.21l1.82-1.23c1.19.32 2.41 1.02 3.51 1.84-1.1-.46-2.27-.77-3.45-.82z" fill="#000000" stroke-width="none" opacity="1"></path></g></g></g><g id="svga-group-nose-single-move" transform="matrix(1,0,0,1,0,0)"><g id="svga-group-nose-single"><path id="SvgjsPath8462" d="M95.9 107.5c2 1 4.3 2 6.4 1 2.2-1.1 2.2-3.4 2-5.6-.8-6.5-1.9-13-3.3-19.4-.2-.8-1.4-.5-1.2.3 1 4.7 1.9 9.4 2.6 14.2.3 2.3 1.1 5 .8 7.3-.5 3.6-4.5 2.2-6.6 1.1-.8-.3-1.4.8-.7 1.1z" fill="#000000" stroke-width="none" opacity="1"></path></g></g><g id="svga-group-hair-front"><path id="SvgjsPath8581" d="M120.3 47.2s-13.7 2.7-26.7.6-20 5.8-22.8 12.4-1.5 19.1 2.1 34c3.6 14.9 3 27.6-5.2 38.8s-17.4 18.2-15.8 35.2c1.2 13.1 9.7 18.5 11.8 26.7 2.1 8.2-7.3 15.8-7.3 15.8s4.5-12.1-2.1-19.7c-6.7-7.6-10.9-14-10.9-28.2 0-14.3 9.7-32.8 11.5-43.4s-1.2-39.2-2.7-52.2 2.1-27.9 20-39.5 51.9-10.3 56.8 10.6c0 0 5.8 2.7 9.4 9.1 3.6 6.4 4.6 19.4 3.9 25.2 0 0-3 3-3.3 7-.3 3.9-2.1 7.3-2.1 7.3s-3-4.6-2.4-13.7-2.4-16.7-6.1-20.6-8.1-5.4-8.1-5.4z" fill="#ffffff" stroke-width="none" opacity="1"></path><path id="SvgjsPath8582" d="M139.4 47c-3.2-5.6-7.9-8.5-9.4-9.3-1.8-6.9-6.7-12.2-14.3-15.3-12.9-5.2-31.7-3.3-43.8 4.5C56.3 37 49.4 50.5 51.4 67.3c3 26.1 4 44.5 2.7 51.9-.7 4-2.5 9.2-4.5 14.8-3.3 9.3-7 19.8-7 28.8 0 15 4.8 21.7 11.2 28.9 6.2 7 2 18.6 1.9 18.7l-1.3 3.4 2.8-2.3c.4-.3 9.9-8.1 7.6-16.8-.9-3.4-2.8-6.4-4.9-9.5-2.9-4.4-6.2-9.5-7-17.1-1.2-13.4 4.4-20.4 10.9-28.5 1.5-1.9 3.1-3.9 4.7-6.1 3.7-5.1 6-10.7 7-17 .1-.1.2-.2.2-.5 0-.2 0-.5-.1-.8.8-6.4.2-13.4-1.8-21.4-3.9-15.8-4.6-27.4-2.2-33.4 1.4-3.4 7-14.2 21.7-11.8 12.2 2 24.7-.2 26.8-.6.9.4 4.6 1.9 7.5 5.1 3.1 3.3 6.4 10.5 5.8 19.9-.6 9.3 2.5 14.1 2.6 14.3l.9 1.4.8-1.4c.1-.1 1.9-3.6 2.2-7.7.3-3.5 3-6.3 3.1-6.3l.2-.2v-.3c.9-5.6 0-19.1-3.8-25.8zm-16.1-1.3c5.6-.7 10 2.8 13.1 7.1 1.3 1.9 2.3 4 4.3 5 .8 4.4 1 9.1.9 12.5-6.4-8.1-7.8-21.8-19.5-23.8.4-.3.8-.6 1.2-.8zm17.1 10.4c-1.7-1.3-2.7-3.7-4-5.3-1-1.3-2.1-2.4-3.4-3.4-2.4-1.9-5.1-2.9-8-3 .5-.4 1-.9 1.5-1.4 3.6.3 6.5 2.9 10.1 3.4.4.5.7 1 1 1.6 1.3 2.1 2.2 5 2.8 8.1zm-4.8-11.2c-2.8-.7-5.2-2.5-8-3.1.6-.7 1.1-1.5 1.6-2.3 1 .6 3.8 2.4 6.4 5.4zm-7.4-6.1c-.2.3-.4.7-.7 1 .1-1 .2-2 .1-3 .2.6.4 1.2.6 1.9v.1zm-3-6.9c1.4 3.1 1.7 6.5.8 9.8-.2.1-.2.2-.3.4-.5.5-1.1 1.1-1.7 1.5.1-8.5-4.1-15.8-10.6-20 .5.2 1.1.4 1.6.6 3.3 1.5 7.3 3.8 10.2 7.7zM51.5 134.8c2-5.7 3.9-11 4.6-15.2 1.7-9.7-.6-33.9-2.7-52.5-.5-4.3-.4-8.4.3-12.2-.4 8.2 1.5 16.6 4.1 24.4 4 12 9.7 24.3 6 37.1-1.9 6.8-6.5 12.3-10.1 18.2-3 4.9-5.3 10-7.2 15.3 1.4-5 3.2-10.3 5-15.1zm15.5-2.3c-1.5 2.1-3.1 4.1-4.7 6-6.8 8.4-12.6 15.7-11.3 29.9.8 8.1 4.2 13.4 7.3 18 2 3 3.8 5.8 4.6 8.9 1.2 4.8-1.9 9.5-4.4 12.2.9-4.4 1.4-11.7-3.3-17.1-6.2-7.1-10.7-13.2-10.7-27.6v-1.7c2.3-9.8 5.8-18.9 11.2-27.5 3.5-5.4 7.4-10.6 9.2-16.9 3-10.6-.1-21.1-3.7-31.1-4.4-12.4-8.8-25.9-5.1-38.9 3.2-7 8.7-13 16.7-18.1C80 24 89.7 21.5 99 21.5c2.4 0 4.8.2 7 .5 9.9 2.5 17 11.5 16.5 22.6-.5.3-.9.6-1.4.9-7.7-21.4-35.6-25.5-50.7-9.3-20.9 22.5 0 50.1 3.6 75.2-.1 8.1-2.4 14.9-7 21.1zm5-38c.8 3.3 1.4 6.3 1.7 9.3-5.2-20-17.7-40.4-7.2-59.9 5.2-9.7 15.8-17 27.1-16.8 11.7.3 22.6 7.8 26.5 18.9-.3.1-.5.2-.8.3-1.2.2-3.8.6-7 .9-3.7-12.6-17.1-20-29.6-15.1-5.3 2.1-8.8 5.5-11.2 9.7-1.1 2-1.9 4.2-2.5 6.5-.2.5-.5 2-.5 2.1-1.3 6.7-.9 14.1-.1 20.7.1 6.3 1.4 14.1 3.6 23.4zm-2.1-34.6c-.4 1-.8 2.3-1 3.6-.1-2.5-.2-4.9 0-7.4.1 0 .1-.1.2-.2.9-2 2.7-2.9 4.7-2.3-2.1 2.4-3.3 4.9-3.9 6.3zm4.8-7.3c-2-.8-4.1-.5-5.5 1 .1-1 .5-3 .5-3.1 1.3-6.3 9-7.1 13-3-3.5 1.1-6.1 3-8 5.1zm9.2-5.5c-3.3-3.9-9.3-4.5-12.9-1.5.4-1 .8-2 1.4-2.9.1 0 .1-.1.2-.2 6.6-9.7 20.7-6.2 23.4 4.6-.7-.1-1.4-.2-2.2-.3-3.8-.6-7.1-.4-9.9.3zm13.4.2C95.2 37.5 84.8 33.2 77 37.1c.9-.8 1.8-1.5 2.9-2.1C92 27.7 107 34.3 111 47.4c-3.9.3-8.8.4-13.7-.1zM137 84.6c-.8-2.1-1.8-5.8-1.4-11.2.8 1.4 1.8 2.8 3 3.9-.2.7-.4 1.5-.5 2.4-.1 1.8-.6 3.6-1.1 4.9zm2.1-8.6c-1.7-1.6-2.8-3.6-3.4-5.8-.2-8.4-3.3-14.8-6.4-18.2-1.1-1.2-2.3-2.2-3.5-3 8.1 4.3 9.7 16.3 15.8 23.1v.2c-.5.5-1.7 1.9-2.5 3.7z" fill="#000000" stroke-width="none" opacity="1"></path></g><g id="svga-group-glasses-single-move" transform="matrix(1,0,0,1,0,0)"><g id="svga-group-glasses-single"><path id="SvgjsPath8508" d="M84.1 74.65c-3.7-.54-7.89 0-12.21 4.65-4.32 4.65-3.95 10.36-1.81 15.39 2.29 5.38 8.12 7.62 12.11 7.7 3.99.08 8.55-2.16 10.88-4.98 2.33-2.82 3.74-7.47 3.07-11.29-.66-3.84-3.57-10.23-12.04-11.47z" fill="url(#SvgjsLinearGradient8509)" opacity="1"></path><path id="SvgjsPath8512" d="M115.68 74.65c3.7-.54 7.89 0 12.21 4.65 4.32 4.65 3.95 10.36 1.81 15.39-2.29 5.38-8.12 7.62-12.11 7.7s-8.55-2.16-10.88-4.98c-2.33-2.82-3.74-7.47-3.07-11.29.66-3.84 3.57-10.23 12.04-11.47z" fill="url(#SvgjsLinearGradient8513)" opacity="1"></path><path id="SvgjsPath8516" d="M134.62 85.32c-.04-.25-.29-.13-1.71-.59-.89-.29-1.48-.98-1.8-1.46-.56-1.5-1.43-2.99-2.75-4.41-4.92-5.3-9.64-5.31-12.77-4.85-6.87 1.01-10.61 5.48-12.06 9.93-.38.11-.96.16-1.67-.13-1.31-.53-1.81-.84-3.49-.22-1.23.46-1.69.56-2.12.34-1.45-4.44-5.19-8.91-12.06-9.92-3.12-.46-7.84-.46-12.77 4.85-1.32 1.42-2.19 2.91-2.75 4.41-.32.48-.92 1.18-1.8 1.46-1.42.46-1.67.33-1.71.59s-.08 3.76-.04 4.06c.04.29.88.17 1.76.79.68.49 1.18 1.1 1.63 1.9.28 1.02.62 1.98.99 2.86 2.31 5.42 8.19 7.99 12.68 8.09h.23c3.99 0 8.65-2.17 11.16-5.22 1.81-2.19 2.98-5.26 3.28-8.22.3-.85.91-2.3 1.65-2.9 1.09-.87 1.84-1.37 3.08.4.6.85 1.05 1.79 1.36 2.53.31 2.95 1.48 6 3.28 8.18 2.51 3.05 7.17 5.22 11.16 5.22h.23c4.49-.09 10.37-2.66 12.68-8.09.38-.88.72-1.84.99-2.86.45-.8.95-1.41 1.63-1.9.88-.63 1.71-.5 1.76-.79.03-.29-.01-3.8-.05-4.05zM92.58 96.99c-2.29 2.78-6.77 4.84-10.37 4.75-4.09-.08-9.44-2.41-11.53-7.31-1.72-4.03-2.82-9.85 1.69-14.7 3.5-3.77 6.86-4.62 9.52-4.62.77 0 1.49.07 2.13.17 9.14 1.34 11.12 8.71 11.51 10.94.58 3.44-.65 7.98-2.95 10.77zm36.53-2.56c-2.09 4.9-7.44 7.23-11.53 7.31-3.6.09-8.08-1.97-10.37-4.75-2.3-2.8-3.54-7.33-2.94-10.78.39-2.23 2.36-9.59 11.51-10.94.64-.09 1.35-.17 2.13-.17 2.66 0 6.02.85 9.52 4.62 4.5 4.86 3.4 10.68 1.68 14.71z" fill="#000000" stroke-width="none" opacity="1"></path></g></g></g></g></g><rect id="svga-credit-rect" width="200" height="15" x="0" y="185" fill="#ecf0f1" opacity="0.5" style="display: none;"></rect><text id="svga-credit-text" font-family="Avenir Next, Roboto, Helvetica, Arial, sans-serif" font-size="10px" text-anchor="start" font-weight="400" size="10px" anchor="start" weight="400" fill="#333333" x="33.40447998046875" y="182.60824704170227" style="display: none;"><tspan id="SvgjsTspan8309" dy="13" x="33.40447998046875">Created on AvatarMaker.com</tspan></text></g><defs id="SvgjsDefs8261"><linearGradient id="SvgjsLinearGradient8509" x1="82.4213" y1="74.4733" x2="82.4213" y2="102.383" gradientUnits="userSpaceOnUse" class="svga-on-canvas-glasses-gradient-single-0-null"><stop id="SvgjsStop8510" stop-opacity="1" stop-color="#ffffff" offset="0.0708" ></stop><stop id="SvgjsStop8511" stop-opacity="0" stop-color="#ffffff" offset="1" ></stop></linearGradient><linearGradient id="SvgjsLinearGradient8513" x1="38.0028" y1="74.4733" x2="38.0028" y2="102.383" gradientTransform="matrix(-1 0 0 1 155.3625 0)" gradientUnits="userSpaceOnUse" class="svga-on-canvas-glasses-gradient-single-1-null"><stop id="SvgjsStop8514" stop-opacity="1" stop-color="#ffffff" offset="0.0708" ></stop><stop id="SvgjsStop8515" stop-opacity="0" stop-color="#ffffff" offset="1" ></stop></linearGradient></defs></svg>